<svg width="437" height="658" viewBox="0 0 437 658" fill="none" xmlns="http://www.w3.org/2000/svg">
<path d="M148.091 325.872C142.918 328.34 138.402 328.858 134.569 327.443C130.728 326.037 127.734 322.623 125.596 317.22C123.449 311.824 122.322 304.405 122.207 294.971L135.318 288.728C135.49 293.005 136.124 296.377 137.218 298.828C138.312 301.279 139.776 302.809 141.618 303.402C143.46 304.002 145.574 303.731 147.959 302.595C150.262 301.502 152.269 299.873 153.98 297.702C155.691 295.53 157.015 293.005 157.945 290.11C158.882 287.223 159.351 284.155 159.351 280.914C159.351 277.97 158.923 275.7 158.076 274.096C157.229 272.5 155.987 271.373 154.367 270.732C152.738 270.09 150.764 269.77 148.436 269.753L141.404 269.564C135.992 269.49 131.723 267.294 128.59 262.976C125.456 258.666 123.885 251.65 123.885 241.928C123.885 233.974 124.938 226.506 127.052 219.515C129.165 212.532 132.052 206.503 135.721 201.428C139.389 196.353 143.567 192.701 148.247 190.472C153.018 188.202 157.188 187.898 160.733 189.568C164.286 191.237 167.058 194.568 169.065 199.569C171.063 204.57 172.092 210.944 172.149 218.692L159.08 224.91C158.849 219.893 157.78 216.398 155.864 214.424C153.947 212.45 151.365 212.236 148.116 213.782C145.928 214.818 144.069 216.34 142.531 218.339C140.993 220.337 139.817 222.649 139.019 225.272C138.213 227.896 137.81 230.651 137.81 233.53C137.81 236.598 138.27 238.95 139.192 240.604C140.113 242.257 141.338 243.384 142.885 243.976C144.423 244.568 146.109 244.872 147.951 244.881L153.692 245.07C156.481 245.037 159.055 245.539 161.416 246.567C163.776 247.595 165.824 249.256 167.56 251.551C169.295 253.846 170.644 256.873 171.598 260.632C172.544 264.39 173.021 269.013 173.021 274.491C173.021 282.559 172.034 290.028 170.068 296.887C168.102 303.747 165.257 309.661 161.547 314.645C157.846 319.629 153.355 323.372 148.091 325.872Z" fill="black"/>
<path d="M208.191 297.192C202.491 299.906 197.375 299.684 192.835 296.55C188.286 293.408 184.692 287.437 182.044 278.62C179.395 269.802 178.071 258.263 178.071 244.009C178.071 229.632 179.395 216.759 182.035 205.401C184.684 194.034 188.278 184.641 192.818 177.197C197.359 169.762 202.483 164.687 208.174 161.981C213.866 159.275 218.99 159.472 223.531 162.581C228.071 165.69 231.665 171.678 234.297 180.528C236.929 189.378 238.245 200.992 238.245 215.369C238.245 229.681 236.929 242.512 234.297 253.838C231.665 265.164 228.079 274.548 223.539 281.984C218.999 289.411 213.883 294.477 208.191 297.192ZM208.191 272.615C211.497 271.044 214.376 268.026 216.819 263.56C219.262 259.094 221.154 253.352 222.486 246.32C223.827 239.288 224.493 231.153 224.493 221.9C224.493 212.589 223.818 205.047 222.486 199.257C221.145 193.475 219.254 189.51 216.811 187.372C214.368 185.233 211.489 184.953 208.183 186.533C204.901 188.095 202.039 191.106 199.596 195.564C197.153 200.03 195.245 205.796 193.879 212.869C192.514 219.943 191.831 228.135 191.831 237.445C191.831 246.698 192.514 254.191 193.879 259.932C195.245 265.674 197.153 269.613 199.596 271.752C202.047 273.89 204.909 274.178 208.191 272.615Z" fill="black"/>
<path d="M274.196 265.78C268.505 268.486 263.397 268.264 258.882 265.114C254.366 261.964 250.796 255.968 248.181 247.143C245.565 238.317 244.249 226.769 244.249 212.515C244.249 198.138 245.565 185.274 248.197 173.915C250.829 162.557 254.407 153.164 258.939 145.737C263.471 138.31 268.546 133.251 274.188 130.57C277.931 128.793 281.393 128.217 284.585 128.851C287.776 129.484 290.605 131.261 293.065 134.181C295.524 137.109 297.531 141.155 299.085 146.345C300.64 151.527 301.635 157.811 302.063 165.213L288.343 171.744C288.08 168.273 287.57 165.279 286.814 162.754C286.049 160.229 285.062 158.255 283.836 156.832C282.611 155.409 281.221 154.529 279.65 154.184C278.079 153.838 276.36 154.11 274.493 154.998C271.211 156.561 268.332 159.62 265.84 164.194C263.356 168.767 261.423 174.574 260.058 181.614C258.692 188.655 258.01 196.773 258.01 205.968C258.01 215.337 258.701 222.887 260.082 228.62C261.464 234.361 263.389 238.251 265.865 240.316C268.34 242.38 271.203 242.635 274.451 241.089C276.261 240.225 277.947 238.926 279.502 237.182C281.056 235.447 282.438 233.341 283.647 230.882C284.856 228.423 285.868 225.626 286.69 222.501C287.513 219.375 288.064 215.97 288.352 212.293L302.071 205.763C301.725 211.997 300.854 218.24 299.464 224.499C298.065 230.758 296.182 236.656 293.797 242.175C291.411 247.702 288.574 252.522 285.3 256.651C282.002 260.78 278.309 263.823 274.196 265.78Z" fill="black"/>
<path d="M322.502 109.341L322.51 241.023L308.964 247.472L308.955 115.789L322.502 109.341Z" fill="black"/>
<path d="M374.624 216.225L389.116 209.324L366.974 88.1782L349.455 96.5101L327.289 238.745L341.831 231.828L346.601 199.503L369.845 188.441L374.624 216.225ZM350.056 176.128L357.968 122.518L358.486 122.271L366.399 168.347L350.056 176.128Z" fill="black"/>
<path d="M393.912 207.046L393.903 75.3637L407.45 68.9153L407.458 177.617L435.028 164.498V187.479L393.912 207.046Z" fill="black"/>
<path d="M47.3266 457.924L61.819 464.932L39.6774 322.541L22.1581 314.078L0 435.043L14.5418 442.067L19.3123 414.324L42.5561 425.559L47.3266 457.924ZM22.7585 394.255L30.671 348.236L31.1892 348.483L39.1098 402.159L22.7585 394.255Z" fill="black"/>
<path d="M102.286 484.491L117.297 491.746L103.635 434.014C103.841 433.932 104.046 433.875 104.244 433.776C107.739 432.139 110.404 428.611 112.246 423.19C114.089 417.778 115.01 410.713 115.01 401.986C115.01 393.268 114.097 385.24 112.271 377.903C110.445 370.575 107.813 364.308 104.375 359.109C100.937 353.911 96.7917 350.136 91.9307 347.792L66.606 335.553L66.6142 467.243L80.1608 473.79V427.122L90.0965 431.925L102.286 484.491ZM80.1443 364.908L89.3316 369.349C91.9472 370.616 94.1186 372.45 95.8458 374.844C97.5731 377.237 98.8561 380.132 99.7115 383.513C100.559 386.902 100.986 390.8 100.986 395.217C100.986 399.576 100.559 402.998 99.7115 405.474C98.8644 407.949 97.5813 409.512 95.8705 410.154C94.1597 410.803 91.9965 410.491 89.381 409.224L80.1525 404.758L80.1443 364.908Z" fill="black"/>
<path d="M152.154 482.69C146.463 485.396 141.355 485.174 136.839 482.024C132.324 478.874 128.754 472.878 126.139 464.052C123.523 455.227 122.215 443.679 122.207 429.425C122.207 415.048 123.523 402.184 126.155 390.825C128.787 379.466 132.365 370.073 136.897 362.646C141.429 355.219 146.512 350.161 152.146 347.479C155.888 345.703 159.351 345.127 162.542 345.76C165.734 346.394 168.563 348.17 171.022 351.09C173.482 354.018 175.489 358.073 177.043 363.255C178.598 368.437 179.585 374.72 180.02 382.123L166.301 388.654C166.046 385.183 165.528 382.189 164.771 379.664C164.006 377.139 163.019 375.165 161.794 373.742C160.568 372.319 159.178 371.439 157.607 371.093C156.036 370.748 154.326 371.019 152.45 371.907C149.169 373.47 146.29 376.53 143.798 381.103C141.314 385.676 139.381 391.483 138.015 398.524C136.65 405.564 135.967 413.682 135.967 422.878C135.967 432.246 136.658 439.797 138.04 445.529C139.422 451.262 141.347 455.161 143.822 457.225C146.298 459.29 149.16 459.545 152.409 457.998C154.219 457.135 155.905 455.835 157.459 454.092C159.014 452.356 160.396 450.251 161.605 447.791C162.814 445.332 163.825 442.535 164.648 439.41C165.47 436.276 166.022 432.879 166.309 429.203L180.029 422.672C179.683 428.907 178.811 435.149 177.421 441.409C176.023 447.668 174.14 453.565 171.754 459.084C169.369 464.611 166.531 469.431 163.258 473.56C159.96 477.689 156.267 480.732 152.154 482.69Z" fill="black"/>
<path d="M186.921 464.373L186.913 332.691L200.46 326.242L200.468 380.593L228.079 367.458L228.071 313.107L241.617 306.659L241.626 438.341L228.079 444.789L228.071 390.348L200.46 403.483L200.468 457.924L186.921 464.373Z" fill="black"/>
<path d="M263.447 296.27L263.455 427.953L249.908 434.401L249.9 302.719L263.447 296.27Z" fill="black"/>
<path d="M283.376 286.787L298.872 379.458L299.472 379.17L315.042 271.719L330.053 264.571L307.936 406.781L290.416 415.113L268.234 293.984L283.376 286.787Z" fill="black"/>
<path d="M334.848 393.983L334.84 262.301L378.152 241.689V264.67L348.386 278.833V309.768L375.907 296.673V319.21L348.386 332.304V364.562L378.243 350.358V373.339L334.848 393.983Z" fill="black"/>
<path d="M421.737 352.636L436.747 345.489L423.086 300.86C423.291 300.589 423.497 300.325 423.694 300.046C427.19 295.061 429.855 288.975 431.697 281.786C433.54 274.606 434.461 266.66 434.461 257.934C434.461 249.215 433.548 242.068 431.722 236.483C429.896 230.906 427.264 227.164 423.826 225.264C420.388 223.364 416.242 223.57 411.381 225.881L386.057 237.931L386.065 369.613L399.611 363.164V316.496L409.547 311.766L421.737 352.636ZM399.595 254.29L408.782 249.914C411.398 248.672 413.569 248.417 415.297 249.158C417.024 249.898 418.307 251.551 419.162 254.126C420.009 256.7 420.437 260.196 420.437 264.612C420.437 268.972 420.009 272.804 419.162 276.086C418.315 279.376 417.032 282.165 415.321 284.451C413.61 286.738 411.447 288.506 408.832 289.756L399.603 294.148L399.595 254.29Z" fill="black"/>
<path d="M427.987 375.658L129.675 517.506C125.661 519.414 120.998 519.414 116.976 517.498L7.04059 465.113C3.77527 463.559 0 465.936 0 469.555V594.599C0 598.399 2.17963 601.854 5.60945 603.49L116.976 656.558C120.99 658.474 125.653 658.474 129.675 656.566L429.41 514.044C432.84 512.415 435.028 508.952 435.028 505.152V380.108C435.02 376.489 431.253 374.104 427.987 375.658Z" fill="black"/>
<path d="M289.314 0.48326L5.62592 135.398C2.18787 137.026 0 140.489 0 144.289V271.25C0 275.05 2.17963 278.504 5.60945 280.141L98.4202 324.383C101.686 325.938 105.461 323.561 105.461 319.942V191.797C105.461 189.897 104.367 188.161 102.648 187.347L26.7806 151.437L282.759 29.6326L296.355 36.0975V4.93298C296.355 1.31399 292.579 -1.07126 289.314 0.48326Z" fill="black"/>
</svg>
